<svg xmlns="http://www.w3.org/2000/svg" viewBox="0 0 1440 320"><path fill="#e14eca" fill-opacity="1" d="M0,0L24,21.3C48,43,96,85,144,101.3C192,117,240,107,288,138.7C336,171,384,245,432,266.7C480,288,528,256,576,250.7C624,245,672,267,720,266.7C768,267,816,245,864,224C912,203,960,181,1008,154.7C1056,128,1104,96,1152,90.7C1200,85,1248,107,1296,106.7C1344,107,1392,85,1416,74.7L1440,64L1440,0L1416,0C1392,0,1344,0,1296,0C1248,0,1200,0,1152,0C1104,0,1056,0,1008,0C960,0,912,0,864,0C816,0,768,0,720,0C672,0,624,0,576,0C528,0,480,0,432,0C384,0,336,0,288,0C240,0,192,0,144,0C96,0,48,0,24,0L0,0Z"></path></svg>