<svg height="512pt" viewBox="0 0 512 512" width="512pt" xmlns="http://www.w3.org/2000/svg"><path d="m442.027344 395.777344c-3.925782-6.742188-14.761719-10.410156-21.335938-13.910156-9.554687-5.121094-19.113281-10.242188-28.5-15.617188-9.984375-6.011719-20.878906-10.363281-32.253906-12.882812-5.597656-1.160157-11.035156-2.964844-16.214844-5.378907-9.78125-4.449219-19.148437-9.761719-27.988281-15.871093h-119.46875c-8.839844 6.109374-18.207031 11.421874-27.988281 15.871093-5.179688 2.414063-10.617188 4.21875-16.214844 5.378907-11.375 2.519531-22.269531 6.871093-32.253906 12.882812-9.386719 5.375-18.945313 10.496094-28.5 15.617188-6.574219 3.5-17.410156 7.167968-21.335938 13.910156-1.742187 4.296875-2.273437 8.988281-1.535156 13.566406-.085938 2.816406-.085938 5.632812 0 8.363281.039062 4.6875 1.941406 9.164063 5.289062 12.445313 3.34375 3.28125 7.859376 5.097656 12.546876 5.046875h339.453124c4.6875.050781 9.203126-1.765625 12.546876-5.046875 3.347656-3.28125 5.25-7.757813 5.289062-12.445313.085938-2.730469.085938-5.546875 0-8.363281.738281-4.578125.207031-9.269531-1.535156-13.566406zm0 0" fill="#d4e1f4"/><path d="m198.828125 435.199219h-112.554687c-4.6875.050781-9.203126-1.765625-12.546876-5.046875-3.347656-3.28125-5.25-7.757813-5.289062-12.445313-.085938-2.730469-.085938-5.546875 0-8.363281-.738281-4.578125-.207031-9.269531 1.535156-13.566406 3.925782-6.742188 14.761719-10.410156 21.335938-13.910156 9.554687-5.121094 19.113281-10.242188 28.5-15.617188 9.984375-6.011719 20.878906-10.363281 32.253906-12.882812 5.597656-1.160157 11.035156-2.964844 16.214844-5.378907-1.621094 10.496094-9.128906 67.925781 30.550781 87.210938zm0 0" fill="#e3e7f2"/><path d="m443.5625 409.34375c.085938 2.816406.085938 5.632812 0 8.363281-.039062 4.6875-1.941406 9.164063-5.289062 12.445313-3.34375 3.28125-7.859376 5.097656-12.546876 5.046875h-112.554687c33.878906-16.46875 33.367187-60.757813 31.488281-79.871094-.339844-3.242187-.679687-5.804687-.9375-7.339844 5.179688 2.414063 10.617188 4.21875 16.214844 5.378907 11.375 2.519531 22.269531 6.871093 32.253906 12.882812 9.386719 5.375 18.945313 10.496094 28.5 15.617188 6.574219 3.5 17.410156 7.167968 21.335938 13.910156 1.742187 4.296875 2.273437 8.988281 1.535156 13.566406zm0 0" fill="#d4e1f4"/><path d="m420.523438 409.34375c.085937 2.816406.085937 5.632812 0 8.363281-.042969 4.6875-1.945313 9.164063-5.289063 12.445313-3.347656 3.28125-7.859375 5.097656-12.546875 5.046875h-89.515625c33.878906-16.46875 33.367187-60.757813 31.488281-79.871094 8.550782 2.703125 16.765625 6.367187 24.492188 10.921875 9.386718 5.375 18.945312 10.496094 28.5 15.617188 6.570312 3.5 17.410156 7.167968 21.335937 13.910156 1.742188 4.296875 2.273438 8.988281 1.535157 13.566406zm0 0" fill="#e3e7f2"/><path d="m315.734375 309.675781v48.722657s-8.535156 42.667968-59.734375 42.667968-59.734375-42.667968-59.734375-42.667968v-48.722657zm0 0" fill="#a4c2f7"/><path d="m342.785156 186.027344c4.601563-5.117188 11.546875-7.445313 18.304688-6.144532 9.386718 3.328126 4.675781 33.621094 4.675781 33.621094-4.136719 14.71875-15.019531 26.597656-29.320313 32h-160.863281c-14.304687-5.421875-25.207031-17.285156-29.398437-32 0 0-4.589844-30.292968 4.839844-33.621094 6.730468-1.300781 13.648437 1.03125 18.21875 6.144532zm0 0" fill="#a4c2f7"/><path d="m342.527344 239.359375c0 22.699219 6.65625 42.242187-19.96875 65.023437-26.621094 22.785157-26.621094 45.484376-53.246094 45.484376h-26.625c-26.625 0-26.625-22.785157-53.246094-45.484376-26.625-22.699218-19.96875-42.324218-19.96875-65.023437s-9.984375-29.269531-6.65625-94.292969c2.816406-54.273437 61.097656-65.449218 80.382813-67.753906 3.839843-.425781 6.144531-.511719 6.144531-.511719h13.3125s83.199219 3.242188 86.527344 68.265625c3.328125 65.023438-6.65625 71.507813-6.65625 94.292969zm0 0" fill="#a4c2f7"/><path d="m316.929688 239.359375c0 22.699219 6.65625 42.242187-19.96875 65.023437-26.625 22.785157-26.625 45.484376-53.25 45.484376h-1.023438c-26.625 0-26.625-22.785157-53.246094-45.484376-26.625-22.699218-19.96875-42.324218-19.96875-65.023437s-9.984375-29.269531-6.65625-94.292969c2.816406-54.273437 61.097656-65.449218 80.382813-67.753906 19.285156 2.304688 77.570312 13.480469 80.386719 67.753906 3.324218 65.023438-6.65625 71.507813-6.65625 94.292969zm0 0" fill="#d4e1f4"/><path d="m315.734375 170.667969c0 32.988281-26.746094 59.730469-59.734375 59.730469s-59.734375-26.742188-59.734375-59.730469c0-32.992188 26.746094-59.734375 59.734375-59.734375s59.734375 26.742187 59.734375 59.734375zm0 0" fill="#e3e7f2"/><path d="m94.039062 417.707031c-.085937-2.730469-.085937-5.546875 0-8.363281-.738281-4.578125-.207031-9.269531 1.535157-13.566406 3.925781-6.742188 14.761719-10.410156 21.332031-13.910156 9.558594-5.121094 19.113281-10.242188 28.5-15.617188 9.988281-6.011719 20.878906-10.363281 32.257812-12.882812 5.59375-1.160157 11.035157-2.964844 16.214844-5.378907 9.78125-4.449219 19.148438-9.761719 27.988282-15.871093v-21.332032c-2.089844-2.132812-4.265626-4.269531-6.828126-6.425781-25.410156-21.753906-20.480468-40.550781-20.019531-61.960937-11.34375-6.089844-19.730469-16.527344-23.234375-28.921876 0 0-4.589844-30.292968 4.835938-33.621093 3.785156-1.1875 7.890625-.75 11.335937 1.214843-.34375-9.609374-.300781-21.25.457031-36.027343 2.808594-54.179688 60.878907-65.410157 80.265626-67.738281-3.753907-.410157-6.023438-.503907-6.023438-.503907h-13.3125s-2.304688.085938-6.144531.511719c-19.285157 2.304688-77.566407 13.480469-80.382813 67.753906-.761718 14.78125-.800781 26.453125-.460937 36.027344-3.441407-1.957031-7.539063-2.394531-11.316407-1.210938-9.429687 3.328126-4.835937 33.621094-4.835937 33.621094 3.5 12.390625 11.886719 22.828125 23.234375 28.917969-.496094 21.410156-5.394531 40.210937 20.019531 61.960937 2.558594 2.152344 4.734375 4.269532 6.828125 6.425782v21.335937c-8.84375 6.109375-18.210937 11.417969-27.992187 15.871094-5.175781 2.414063-10.617188 4.21875-16.210938 5.375-11.378906 2.523437-22.273437 6.875-32.257812 12.886719-9.386719 5.375-18.941407 10.496094-28.5 15.613281-6.570313 3.5-17.410157 7.167969-21.332031 13.910156-1.746094 4.296875-2.277344 8.992188-1.539063 13.570313-.085937 2.816406-.085937 5.628906 0 8.359375.101563 9.746093 8.074219 17.5625 17.820313 17.46875h25.597656c-4.683594.050781-9.199219-1.765625-12.542969-5.046875-3.347656-3.28125-5.25-7.757813-5.289063-12.445313zm0 0" fill="#fff"/><path d="m17.066406 179.199219v153.601562h-17.066406v-153.601562zm0 0" fill="#fff"/><g fill="#428dff"><path d="m452.128906 417.730469v-8.394531c0-.855469 0-1.707032.0625-2.628907.585938-5.242187-.394531-10.542969-2.824218-15.222656-5.0625-6.816406-12.027344-11.980469-20.019532-14.839844-1.707031-.792969-3.253906-1.535156-4.636718-2.269531-9.46875-5.121094-18.949219-10.179688-28.296876-15.523438-10.765624-6.539062-22.5625-11.214843-34.890624-13.824218-13.300782-3.703125-25.890626-9.589844-37.257813-17.425782v-13.164062c1.253906-1.195312 2.441406-2.398438 3.839844-3.59375 24.996093-21.332031 24.269531-41.8125 23.355469-59.929688 15.210937-6.789062 26.617187-19.980468 31.140624-36.011718 1.875-11.269532 4.582032-38.050782-10.726562-43.109375-4.363281-1.433594-9.058594-1.527344-13.476562-.273438.054687-7.757812-.136719-16.605469-.664063-26.898437-2.96875-57.582032-63.273437-75.117188-95.078125-76.355469h-13.652344c-31.472656 1.230469-91.777344 18.773437-94.722656 76.355469-.519531 10.300781-.679688 19.152344-.679688 26.898437-4.378906-1.257812-9.03125-1.171875-13.355468.246094-15.429688 5.0625-12.800782 31.832031-10.878906 43.523437 4.667968 15.859376 16.050781 28.875 31.144531 35.617188-.914063 18.105469-1.636719 38.570312 23.355469 59.929688 1.398437 1.195312 2.558593 2.398437 3.839843 3.589843v13.1875c-11.371093 7.816407-23.960937 13.699219-37.253906 17.40625-12.328125 2.609375-24.125 7.285157-34.894531 13.824219-9.386719 5.34375-18.824219 10.4375-28.296875 15.523438-1.382813.734374-2.96875 1.476562-4.632813 2.269531-7.984375 2.867187-14.941406 8.03125-19.996094 14.847656-2.429687 4.679687-3.410156 9.980469-2.824218 15.222656 0 .851563.070312 1.757813.0625 2.628907v8.386718c.144531 14.460938 11.949218 26.085938 26.410156 26.011719h339.4375c14.460938.078125 26.265625-11.542969 26.410156-26.003906zm-86.492187-229.945313c1.71875 7.863282 1.792969 15.996094.222656 23.894532-2.519531 7.769531-7.511719 14.503906-14.21875 19.171874.453125-3.464843 1.101563-6.824218 1.871094-10.65625 2.097656-9.789062 3.5-19.710937 4.195312-29.695312 2.269531-1.761719 5.058594-2.71875 7.929688-2.714844zm-219.484375 24.34375c-1.640625-8.039062-1.558594-16.339844.246094-24.34375 2.855468-.039062 5.644531.898438 7.894531 2.660156.695312 9.996094 2.097656 19.925782 4.195312 29.722657.769531 3.816406 1.425781 7.203125 1.871094 10.667969-6.59375-4.578126-11.570313-11.125-14.207031-18.707032zm31.460937 38.964844c.085938-1.648438.101563-3.355469.171875-5.027344.027344-.410156.027344-.820312 0-1.226562.066406-1.835938.1875-3.628906.1875-5.496094-.113281-7.59375-1.046875-15.152344-2.792968-22.546875-2.214844-10.273437-3.601563-20.710937-4.144532-31.207031v-.09375c-.609375-13.324219-.523437-26.675782.261719-39.996094 2.929687-56.378906 75.316406-60.046875 78.046875-60.167969h12.960938c3.089843.128907 75.46875 3.796875 78.363281 60.179688.785156 13.316406.875 26.667969.265625 39.996093v.09375c-.546875 10.496094-1.933594 20.929688-4.148438 31.203126-1.742187 7.394531-2.679687 14.953124-2.789062 22.546874 0 1.867188.117187 3.660157.1875 5.496094-.03125.410156-.03125.820313 0 1.226563.066406 1.707031.085937 3.414062.167968 5.027343.90625 17.765626 1.554688 30.601563-17.371093 46.773438-8.808594 7.75-16.597657 16.589844-23.1875 26.296875-8.78125 12.203125-12.851563 17.160156-24.480469 17.160156h-26.625c-11.628906 0-15.675781-4.957031-24.515625-17.167969-6.585937-9.710937-14.378906-18.546874-23.183594-26.300781-18.929687-16.167969-18.28125-29.003906-17.375-46.769531zm-100.675781 166.585938v-8.25c0-1.117188 0-2.234376-.078125-3.363282-.292969-2.003906-.117187-4.046875.511719-5.972656 3.542968-3.570312 7.832031-6.304688 12.5625-8.011719 1.953125-.921875 3.804687-1.800781 5.417968-2.664062 9.617188-5.121094 19.234376-10.332031 28.707032-15.75 9.140625-5.578125 19.152344-9.585938 29.617187-11.855469 1.546875-.289062 3.117188-.683594 4.703125-1.117188-1.09375 18.320313.546875 46.140626 16.433594 65.996094h-88.53125c-5.066406.085938-9.246094-3.945312-9.34375-9.011718zm230.808594 8.988281h-106.863282c-28.371093-15.359375-26.574218-57.070313-24.746093-72.875 4.191406-2.023438 8.140625-4.15625 11.613281-6.160157v11.875c0 4.714844 3.820312 8.535157 8.535156 8.535157 4.710938 0 8.53125-3.820313 8.53125-8.535157v-24.746093c8.832032 12.246093 17.398438 23.636719 37.871094 23.636719h26.625c20.480469 0 29.011719-11.390626 37.886719-23.617188v24.746094c0 4.710937 3.820312 8.53125 8.535156 8.53125 4.710937 0 8.53125-3.820313 8.53125-8.53125v-11.894532c3.472656 2.003907 7.425781 4.136719 11.613281 6.160157 1.8125 15.804687 3.609375 57.480469-24.746094 72.875zm127.394531-20.601563c-.042969 1.128906-.085937 2.246094-.078125 3.363282v8.261718c-.117188 5.050782-4.289062 9.0625-9.34375 8.976563h-88.53125c15.886719-19.859375 17.527344-47.675781 16.433594-66 1.585937.4375 3.15625.855469 4.710937 1.121093 10.464844 2.277344 20.472657 6.292969 29.609375 11.878907 9.472656 5.417969 19.089844 10.589843 28.707032 15.75 1.613281.855469 3.464843 1.707031 5.417968 2.664062 4.730469 1.707031 9.019532 4.441407 12.5625 8.011719.628906 1.925781.804688 3.96875.511719 5.972656zm0 0"/><path d="m8.535156 76.800781c4.710938 0 8.53125-3.820312 8.53125-8.535156v-25.597656c0-14.140625 11.460938-25.601563 25.601563-25.601563h25.597656c4.714844 0 8.535156-3.820312 8.535156-8.53125 0-4.714844-3.820312-8.535156-8.535156-8.535156h-25.597656c-23.554688.0273438-42.6406252 19.113281-42.667969 42.667969v25.597656c0 4.714844 3.820312 8.535156 8.535156 8.535156zm0 0"/><path d="m68.265625 494.933594h-25.597656c-14.140625 0-25.601563-11.460938-25.601563-25.601563v-25.597656c0-4.714844-3.820312-8.535156-8.53125-8.535156-4.714844 0-8.535156 3.820312-8.535156 8.535156v25.597656c.0273438 23.554688 19.113281 42.640625 42.667969 42.667969h25.597656c4.714844 0 8.535156-3.820312 8.535156-8.535156 0-4.710938-3.820312-8.53125-8.535156-8.53125zm0 0"/><path d="m503.464844 435.199219c-4.710938 0-8.53125 3.820312-8.53125 8.535156v25.597656c0 14.140625-11.460938 25.601563-25.601563 25.601563h-25.597656c-4.714844 0-8.535156 3.820312-8.535156 8.53125 0 4.714844 3.820312 8.535156 8.535156 8.535156h25.597656c23.554688-.027344 42.640625-19.113281 42.667969-42.667969v-25.597656c0-4.714844-3.820312-8.535156-8.535156-8.535156zm0 0"/><path d="m469.332031 0h-25.597656c-4.714844 0-8.535156 3.820312-8.535156 8.535156 0 4.710938 3.820312 8.53125 8.535156 8.53125h25.597656c14.140625 0 25.601563 11.460938 25.601563 25.601563v25.597656c0 4.714844 3.820312 8.535156 8.53125 8.535156 4.714844 0 8.535156-3.820312 8.535156-8.535156v-25.597656c-.027344-23.554688-19.113281-42.6406252-42.667969-42.667969zm0 0"/><path d="m51.199219 51.199219h17.066406c4.714844 0 8.535156-3.820313 8.535156-8.53125 0-4.714844-3.820312-8.535157-8.535156-8.535157h-17.066406c-9.425781 0-17.066407 7.640626-17.066407 17.066407v17.066406c0 4.714844 3.820313 8.535156 8.535157 8.535156 4.710937 0 8.53125-3.820312 8.53125-8.535156zm0 0"/><path d="m68.265625 460.800781h-17.066406v-17.066406c0-4.714844-3.820313-8.535156-8.53125-8.535156-4.714844 0-8.535157 3.820312-8.535157 8.535156v17.066406c0 9.425781 7.640626 17.066407 17.066407 17.066407h17.066406c4.714844 0 8.535156-3.820313 8.535156-8.535157 0-4.710937-3.820312-8.53125-8.535156-8.53125zm0 0"/><path d="m469.332031 435.199219c-4.710937 0-8.53125 3.820312-8.53125 8.535156v17.066406h-17.066406c-4.714844 0-8.535156 3.820313-8.535156 8.53125 0 4.714844 3.820312 8.535157 8.535156 8.535157h17.066406c9.425781 0 17.066407-7.640626 17.066407-17.066407v-17.066406c0-4.714844-3.820313-8.535156-8.535157-8.535156zm0 0"/><path d="m477.867188 51.199219c0-9.425781-7.640626-17.066407-17.066407-17.066407h-17.066406c-4.714844 0-8.535156 3.820313-8.535156 8.535157 0 4.710937 3.820312 8.53125 8.535156 8.53125h17.066406v17.066406c0 4.714844 3.820313 8.535156 8.53125 8.535156 4.714844 0 8.535157-3.820312 8.535157-8.535156zm0 0"/><path d="m256 238.933594c37.703125 0 68.265625-30.5625 68.265625-68.265625s-30.5625-68.269531-68.265625-68.269531-68.265625 30.566406-68.265625 68.269531c.042969 37.683593 30.582031 68.222656 68.265625 68.265625zm0-119.46875c28.277344 0 51.199219 22.925781 51.199219 51.203125 0 28.277343-22.921875 51.199219-51.199219 51.199219s-51.199219-22.921876-51.199219-51.199219c.027344-28.265625 22.933594-51.171875 51.199219-51.203125zm0 0"/><path d="m241.433594 202.300781c1.601562 1.597657 3.769531 2.5 6.03125 2.5h.472656c2.421875-.132812 4.675781-1.296875 6.195312-3.191406l34.132813-42.667969c1.90625-2.378906 2.394531-5.597656 1.285156-8.4375s-3.648437-4.875-6.664062-5.332031c-3.015625-.460937-6.046875.722656-7.953125 3.101563l-28.15625 35.226562-10.328125-10.324219c-3.347657-3.234375-8.667969-3.1875-11.960938.105469-3.292969 3.289062-3.339843 8.613281-.105469 11.960938zm0 0"/><path d="m162.132812 8.535156c0 4.710938 3.820313 8.53125 8.535157 8.53125h170.664062c4.714844 0 8.535157-3.820312 8.535157-8.53125 0-4.714844-3.820313-8.535156-8.535157-8.535156h-170.664062c-4.714844 0-8.535157 3.820312-8.535157 8.535156zm0 0"/><path d="m187.734375 34.132812c-4.714844 0-8.535156 3.820313-8.535156 8.535157 0 4.710937 3.820312 8.53125 8.535156 8.53125h136.53125c4.714844 0 8.535156-3.820313 8.535156-8.53125 0-4.714844-3.820312-8.535157-8.535156-8.535157zm0 0"/><path d="m324.265625 477.867188c4.714844 0 8.535156-3.820313 8.535156-8.535157 0-4.710937-3.820312-8.53125-8.535156-8.53125h-136.53125c-4.714844 0-8.535156 3.820313-8.535156 8.53125 0 4.714844 3.820312 8.535157 8.535156 8.535157zm0 0"/><path d="m341.332031 494.933594h-170.664062c-4.714844 0-8.535157 3.820312-8.535157 8.53125 0 4.714844 3.820313 8.535156 8.535157 8.535156h170.664062c4.714844 0 8.535157-3.820312 8.535157-8.535156 0-4.710938-3.820313-8.53125-8.535157-8.53125zm0 0"/><path d="m8.535156 221.867188c4.710938 0 8.53125-3.820313 8.53125-8.535157v-42.664062c0-4.714844-3.820312-8.535157-8.53125-8.535157-4.714844 0-8.535156 3.820313-8.535156 8.535157v42.664062c0 4.714844 3.820312 8.535157 8.535156 8.535157zm0 0"/><path d="m11.777344 239.617188c-.484375-.246094-1.003906-.421876-1.539063-.511719-.5625-.097657-1.132812-.152344-1.703125-.171875-2.261718.03125-4.425781.917968-6.058594 2.472656-.773437.816406-1.382812 1.773438-1.792968 2.816406-1.289063 3.183594-.5859378 6.824219 1.792968 9.300782.8125.773437 1.769532 1.382812 2.8125 1.792968 1.027344.4375 2.128907.671875 3.246094.683594 2.257813-.03125 4.421875-.917969 6.058594-2.476562 3.296875-3.363282 3.296875-8.75 0-12.117188l-1.28125-1.023438c-.476562-.320312-.992188-.582031-1.535156-.765624zm0 0"/><path d="m8.535156 349.867188c4.710938 0 8.53125-3.820313 8.53125-8.535157v-59.730469c0-4.714843-3.820312-8.535156-8.53125-8.535156-4.714844 0-8.535156 3.820313-8.535156 8.535156v59.730469c0 4.714844 3.820312 8.535157 8.535156 8.535157zm0 0"/><path d="m42.667969 179.199219c-4.714844 0-8.535157 3.820312-8.535157 8.535156v136.53125c0 4.714844 3.820313 8.535156 8.535157 8.535156 4.710937 0 8.53125-3.820312 8.53125-8.535156v-136.53125c0-4.714844-3.820313-8.535156-8.53125-8.535156zm0 0"/><path d="m477.867188 187.734375c0-4.714844-3.820313-8.535156-8.535157-8.535156-4.710937 0-8.53125 3.820312-8.53125 8.535156v136.53125c0 4.714844 3.820313 8.535156 8.53125 8.535156 4.714844 0 8.535157-3.820312 8.535157-8.535156zm0 0"/><path d="m503.464844 162.132812c-4.710938 0-8.53125 3.820313-8.53125 8.535157v170.664062c0 4.714844 3.820312 8.535157 8.53125 8.535157 4.714844 0 8.535156-3.820313 8.535156-8.535157v-170.664062c0-4.714844-3.820312-8.535157-8.535156-8.535157zm0 0"/></g></svg>